<svg width="203" height="173" viewBox="0 0 203 173" fill="none" xmlns="http://www.w3.org/2000/svg">
<g filter="url(#filter0_d_16_735)">
<path d="M52.252 94.5254H150.748V101.732H52.252V94.5254Z" fill="url(#paint0_radial_16_735)"/>
<path d="M101.5 70.7973C105.078 69.5135 107.506 66.119 107.506 62.251V59.0381L101.5 56.7859L95.4941 59.0381V62.251C95.4941 66.1192 97.9219 69.5135 101.5 70.7973Z" fill="url(#paint1_linear_16_735)"/>
<path d="M53.1906 108.939C57.2707 120.384 68.1101 128.158 80.4704 128.158H122.53C134.89 128.158 145.729 120.384 149.809 108.939H53.1906Z" fill="url(#paint2_radial_16_735)"/>
<path d="M150.686 87.3184C156.006 87.3184 160.742 83.8326 162.204 78.7168C162.728 76.8857 163 74.9668 163 73.0045C163 66.196 159.656 59.8358 154.055 55.9911C143.636 48.8396 122.954 36.8418 101.5 36.8418C80.0459 36.8418 59.3639 48.8396 48.9451 55.9914C43.3441 59.8361 40 66.1963 40 73.0048C40 74.967 40.2724 76.886 40.7957 78.7171C42.2577 83.8328 46.9937 87.3187 52.3142 87.3187H150.686V87.3184ZM88.2871 56.541C88.2871 55.0391 89.219 53.6942 90.6253 53.1669L100.235 49.5634C101.05 49.2576 101.95 49.2576 102.765 49.5634L112.374 53.1669C113.781 53.6942 114.713 55.0388 114.713 56.541V62.2511C114.713 69.7397 109.639 76.2383 102.374 78.0545C102.087 78.1261 101.793 78.1621 101.5 78.1621C101.206 78.1621 100.913 78.1263 100.626 78.0545C93.3611 76.2381 88.2871 69.7397 88.2871 62.2511V56.541Z" fill="url(#paint3_radial_16_735)"/>
</g>
<defs>
<filter id="filter0_d_16_735" x="0" y="-15" width="203" height="203" filterUnits="userSpaceOnUse" color-interpolation-filters="sRGB">
<feFlood flood-opacity="0" result="BackgroundImageFix"/>
<feColorMatrix in="SourceAlpha" type="matrix" values="0 0 0 0 0 0 0 0 0 0 0 0 0 0 0 0 0 0 127 0" result="hardAlpha"/>
<feOffset dy="4"/>
<feGaussianBlur stdDeviation="20"/>
<feComposite in2="hardAlpha" operator="out"/>
<feColorMatrix type="matrix" values="0 0 0 0 0 0 0 0 0 0 0 0 0 0 0 0 0 0 0.1 0"/>
<feBlend mode="normal" in2="BackgroundImageFix" result="effect1_dropShadow_16_735"/>
<feBlend mode="normal" in="SourceGraphic" in2="effect1_dropShadow_16_735" result="shape"/>
</filter>
<radialGradient id="paint0_radial_16_735" cx="0" cy="0" r="1" gradientUnits="userSpaceOnUse" gradientTransform="translate(94.1358 95.2816) rotate(90) scale(8.65625 118.302)">
<stop stop-color="#3F3F3F"/>
<stop offset="1" stop-color="#111111" stop-opacity="0.67"/>
</radialGradient>
<linearGradient id="paint1_linear_16_735" x1="93.1656" y1="56.806" x2="105.375" y2="65.2109" gradientUnits="userSpaceOnUse">
<stop stop-color="#96DDFF"/>
<stop offset="0.923907" stop-color="#02A3F1"/>
</linearGradient>
<radialGradient id="paint2_radial_16_735" cx="0" cy="0" r="1" gradientUnits="userSpaceOnUse" gradientTransform="translate(94.2761 110.956) rotate(90) scale(23.0833 116.047)">
<stop stop-color="#3F3F3F"/>
<stop offset="1" stop-color="#111111" stop-opacity="0.67"/>
</radialGradient>
<radialGradient id="paint3_radial_16_735" cx="0" cy="0" r="1" gradientUnits="userSpaceOnUse" gradientTransform="translate(92.3037 42.1385) rotate(90) scale(60.6269 147.733)">
<stop stop-color="#3F3F3F"/>
<stop offset="1" stop-color="#111111" stop-opacity="0.67"/>
</radialGradient>
</defs>
</svg>
