<svg width="773" height="674" viewBox="0 0 773 674" fill="none" xmlns="http://www.w3.org/2000/svg">
<mask id="path-1-inside-1_17_1972" fill="white">
<path fill-rule="evenodd" clip-rule="evenodd" d="M613.044 16.0443C628.7 5.59756 647.11 0.014255 665.947 2.72499e-05C678.471 -0.00943188 690.873 2.44383 702.445 7.21947C714.017 11.9951 724.532 18.9994 733.387 27.8317C742.243 36.6641 749.266 47.1511 754.054 58.6928C758.842 70.2346 761.302 82.6047 761.292 95.0955C761.278 113.883 755.68 132.245 745.206 147.861C734.731 163.476 719.851 175.644 702.445 182.828C694.315 186.183 685.805 188.38 677.16 189.395L656.298 386.741C684.186 392.325 710.042 406.003 730.451 426.362C757.695 453.539 773 490.396 773 528.828C773 557.491 764.478 585.511 748.511 609.344C732.544 633.177 709.849 651.751 683.298 662.72C656.746 673.688 627.529 676.556 599.343 670.962C571.157 665.369 545.267 651.564 524.947 631.294C504.627 611.024 490.79 585.199 485.187 557.086C479.583 528.972 482.464 499.833 493.465 473.352C504.466 446.872 523.094 424.24 546.991 408.319C566.044 395.625 587.765 387.652 610.353 384.943L631.717 183.674C624.659 180.958 617.95 177.412 611.734 173.113L465.544 341.443L465.04 342.042L352.929 351.51C352.918 351.527 352.907 351.544 352.895 351.561C331.722 383.165 301.627 407.798 266.417 422.343C231.207 436.888 192.463 440.692 155.085 433.275C117.707 425.858 83.3743 407.552 56.4278 380.672C29.4812 353.793 11.1316 319.547 3.69955 282.266C-3.73254 244.985 0.0867014 206.343 14.6743 171.227C29.2618 136.111 53.9625 106.098 85.6526 84.9839C117.343 63.8696 154.599 52.6024 192.709 52.6072C218.012 52.6072 243.067 57.5783 266.443 67.2366C289.819 76.8949 311.059 91.0512 328.95 108.897C346.84 126.743 361.031 147.929 370.712 171.246C380.393 194.562 385.374 219.552 385.37 244.788C385.37 265.917 381.878 286.782 375.14 306.576L441.119 301.136L581.691 139.244C577.458 131.213 574.376 122.575 572.581 113.579C568.902 95.1533 570.783 76.0532 577.985 58.6928C585.187 41.3325 597.387 26.4911 613.044 16.0443ZM639.959 135.372C647.893 140.66 657.222 143.482 666.765 143.482H666.861C679.643 143.463 691.894 138.384 700.923 129.361C709.952 120.337 715.02 108.108 715.014 95.3592C715.014 85.8414 712.184 76.5372 706.882 68.6234C701.581 60.7096 694.045 54.5415 685.229 50.8992C676.412 47.2569 666.711 46.3039 657.352 48.1607C647.992 50.0176 639.395 54.6008 632.647 61.331C625.899 68.0611 621.304 76.6359 619.442 85.9709C617.581 95.3058 618.536 104.982 622.188 113.775C625.84 122.569 632.024 130.084 639.959 135.372ZM628.997 602.703C614.446 602.708 600.221 598.408 588.12 590.349C576.02 582.29 566.587 570.832 561.016 557.426C555.444 544.019 553.984 529.266 556.819 515.032C559.655 500.797 566.66 487.722 576.947 477.458C587.234 467.194 600.342 460.204 614.612 457.371C628.883 454.538 643.676 455.99 657.119 461.542C670.563 467.095 682.053 476.499 690.138 488.566C698.222 500.632 702.537 514.819 702.537 529.331C702.537 548.786 694.79 567.445 680.999 581.204C667.208 594.964 648.503 602.697 628.997 602.703ZM140.169 326.339C156.212 337.03 175.073 342.737 194.368 342.737V342.761C207.181 342.761 219.869 340.243 231.707 335.352C243.545 330.461 254.3 323.291 263.359 314.254C272.419 305.216 279.604 294.487 284.505 282.679C289.407 270.871 291.928 258.215 291.925 245.436C291.925 226.191 286.203 207.379 275.483 191.378C264.764 175.377 249.527 162.905 231.701 155.541C213.875 148.176 194.26 146.249 175.336 150.004C156.412 153.758 139.029 163.025 125.385 176.633C111.742 190.241 102.45 207.578 98.686 226.453C94.9217 245.328 96.8537 264.892 104.238 282.671C111.621 300.451 124.125 315.647 140.169 326.339Z"/>
</mask>
<path d="M665.947 2.72499e-05L665.949 3.00003L665.947 2.72499e-05ZM613.044 16.0443L614.709 18.5398L613.044 16.0443ZM702.445 7.21947L703.59 4.44634L703.59 4.44634L702.445 7.21947ZM754.054 58.6928L751.283 59.8424V59.8424L754.054 58.6928ZM761.292 95.0955L764.292 95.0978V95.0977L761.292 95.0955ZM745.206 147.861L747.697 149.532L745.206 147.861ZM702.445 182.828L703.59 185.601L702.445 182.828ZM677.16 189.395L676.81 186.416L674.429 186.695L674.177 189.08L677.16 189.395ZM656.298 386.741L653.315 386.426L653.027 389.146L655.709 389.683L656.298 386.741ZM730.451 426.362L732.569 424.238L730.451 426.362ZM748.511 609.344L746.018 607.674L748.511 609.344ZM683.298 662.72L684.443 665.492L683.298 662.72ZM599.343 670.962L598.759 673.905L599.343 670.962ZM524.947 631.294L527.066 629.17L524.947 631.294ZM485.187 557.086L482.245 557.672L485.187 557.086ZM546.991 408.319L545.328 405.822L546.991 408.319ZM610.353 384.943L610.71 387.922L613.084 387.637L613.336 385.26L610.353 384.943ZM631.717 183.674L634.7 183.991L634.943 181.702L632.795 180.875L631.717 183.674ZM611.734 173.113L613.44 170.646L611.231 169.118L609.469 171.146L611.734 173.113ZM465.544 341.443L463.279 339.475L463.264 339.493L463.25 339.51L465.544 341.443ZM465.04 342.042L465.292 345.031L466.532 344.927L467.334 343.975L465.04 342.042ZM352.929 351.51L352.677 348.521L351.239 348.642L350.436 349.842L352.929 351.51ZM352.895 351.561L355.388 353.231L355.389 353.229L352.895 351.561ZM266.417 422.343L267.562 425.115L266.417 422.343ZM155.085 433.275L154.501 436.217L155.085 433.275ZM56.4278 380.672L54.3091 382.796L56.4278 380.672ZM3.69955 282.266L6.64165 281.68L3.69955 282.266ZM14.6743 171.227L11.9038 170.076L14.6743 171.227ZM85.6526 84.9839L87.316 87.4805L85.6526 84.9839ZM192.709 52.6072L192.709 55.6072H192.709V52.6072ZM266.443 67.2366L265.297 70.0092L266.443 67.2366ZM328.95 108.897L326.831 111.021V111.021L328.95 108.897ZM370.712 171.246L367.941 172.396L370.712 171.246ZM385.37 244.788L382.37 244.788V244.788H385.37ZM375.14 306.576L372.3 305.61L370.825 309.942L375.386 309.566L375.14 306.576ZM441.119 301.136L441.366 304.126L442.583 304.025L443.384 303.103L441.119 301.136ZM581.691 139.244L583.957 141.211L585.302 139.661L584.345 137.845L581.691 139.244ZM572.581 113.579L575.523 112.992V112.992L572.581 113.579ZM639.959 135.372L638.295 137.869L639.959 135.372ZM666.861 143.482V146.482L666.865 146.482L666.861 143.482ZM700.923 129.361L703.044 131.483L700.923 129.361ZM715.014 95.3592H712.014V95.3607L715.014 95.3592ZM706.882 68.6234L709.375 66.9537V66.9537L706.882 68.6234ZM685.229 50.8992L686.374 48.1265V48.1265L685.229 50.8992ZM622.188 113.775L624.958 112.625V112.625L622.188 113.775ZM588.12 590.349L586.458 592.846L588.12 590.349ZM628.997 602.703L628.996 599.703L628.997 602.703ZM561.016 557.426L558.245 558.577V558.577L561.016 557.426ZM556.819 515.032L553.877 514.446L556.819 515.032ZM614.612 457.371L615.197 460.314L614.612 457.371ZM690.138 488.566L692.63 486.896L690.138 488.566ZM680.999 581.204L678.88 579.081L680.999 581.204ZM194.368 342.737H197.368V339.737H194.368V342.737ZM140.169 326.339L138.505 328.835L140.169 326.339ZM194.368 342.761H191.368V345.761H194.368V342.761ZM263.359 314.254L265.478 316.377L263.359 314.254ZM284.505 282.679L281.735 281.529L284.505 282.679ZM291.925 245.436H288.925V245.436L291.925 245.436ZM275.483 191.378L277.976 189.708L275.483 191.378ZM231.701 155.541L232.847 152.768H232.847L231.701 155.541ZM125.385 176.633L127.504 178.757L125.385 176.633ZM104.238 282.671L107.008 281.521L104.238 282.671ZM665.945 -2.99997C646.516 -2.9853 627.528 2.77327 611.378 13.5489L614.709 18.5398C629.872 8.42186 647.704 3.01381 665.949 3.00003L665.945 -2.99997ZM703.59 4.44634C691.654 -0.479442 678.862 -3.00973 665.945 -2.99997L665.949 3.00003C678.08 2.99086 690.093 5.3671 701.301 9.9926L703.59 4.44634ZM735.506 25.7077C726.371 16.5969 715.526 9.37213 703.59 4.44634L701.301 9.9926C712.509 14.6181 722.692 21.402 731.269 29.9558L735.506 25.7077ZM756.825 57.5433C751.885 45.6365 744.641 34.8184 735.506 25.7077L731.269 29.9558C739.845 38.5097 746.646 48.6656 751.283 59.8424L756.825 57.5433ZM764.292 95.0977C764.302 82.2115 761.764 69.45 756.825 57.5433L751.283 59.8424C755.919 71.0192 758.301 82.9979 758.292 95.0932L764.292 95.0977ZM747.697 149.532C758.502 133.423 764.277 114.48 764.292 95.0978L758.292 95.0932C758.278 113.286 752.857 131.067 742.714 146.189L747.697 149.532ZM703.59 185.601C721.543 178.192 736.892 165.64 747.697 149.532L742.714 146.189C732.571 161.312 718.159 173.097 701.301 180.054L703.59 185.601ZM677.51 192.375C686.426 191.328 695.204 189.061 703.59 185.601L701.301 180.054C693.426 183.304 685.183 185.432 676.81 186.416L677.51 192.375ZM659.281 387.056L680.144 189.71L674.177 189.08L653.315 386.426L659.281 387.056ZM732.569 424.238C711.739 403.458 685.349 389.499 656.887 383.799L655.709 389.683C683.022 395.152 708.345 408.548 728.332 428.485L732.569 424.238ZM776 528.828C776 489.598 760.377 451.977 732.569 424.238L728.332 428.485C755.013 455.101 770 491.194 770 528.828H776ZM751.003 611.014C767.301 586.688 776 558.086 776 528.828H770C770 556.896 761.655 584.335 746.018 607.674L751.003 611.014ZM684.443 665.492C711.542 654.298 734.705 635.34 751.003 611.014L746.018 607.674C730.382 631.013 708.157 649.205 682.152 659.947L684.443 665.492ZM598.759 673.905C627.526 679.614 657.344 676.686 684.443 665.492L682.152 659.947C656.148 670.689 627.533 673.498 599.927 668.02L598.759 673.905ZM522.828 633.418C543.568 654.107 569.992 668.196 598.759 673.905L599.927 668.02C572.321 662.541 546.965 649.021 527.066 629.17L522.828 633.418ZM482.245 557.672C487.965 586.369 502.088 612.729 522.828 633.418L527.066 629.17C507.166 609.319 493.616 584.029 488.129 556.499L482.245 557.672ZM490.695 472.201C479.465 499.231 476.525 528.975 482.245 557.672L488.129 556.499C482.641 528.969 485.462 500.434 496.235 474.503L490.695 472.201ZM545.328 405.822C520.937 422.072 501.924 445.172 490.695 472.201L496.235 474.503C507.009 448.572 525.25 426.408 548.655 410.815L545.328 405.822ZM609.996 381.964C586.943 384.729 564.774 392.866 545.328 405.822L548.655 410.815C567.314 398.384 588.587 390.575 610.71 387.922L609.996 381.964ZM628.734 183.358L607.37 384.626L613.336 385.26L634.7 183.991L628.734 183.358ZM610.028 175.581C616.44 180.015 623.359 183.672 630.639 186.474L632.795 180.875C625.958 178.243 619.461 174.809 613.44 170.646L610.028 175.581ZM467.809 343.41L613.999 175.08L609.469 171.146L463.279 339.475L467.809 343.41ZM467.334 343.975L467.839 343.375L463.25 339.51L462.745 340.109L467.334 343.975ZM353.182 354.5L465.292 345.031L464.787 339.053L352.677 348.521L353.182 354.5ZM355.389 353.229C355.393 353.222 355.398 353.215 355.404 353.206C355.41 353.198 355.416 353.188 355.423 353.178L350.436 349.842C350.431 349.849 350.427 349.856 350.421 349.865C350.415 349.873 350.409 349.883 350.402 349.893L355.389 353.229ZM267.562 425.115C303.32 410.344 333.884 385.329 355.388 353.231L350.403 349.891C329.56 381.002 299.934 405.251 265.272 419.57L267.562 425.115ZM154.501 436.217C192.46 443.75 231.805 439.886 267.562 425.115L265.272 419.57C230.609 433.889 192.467 437.634 155.669 430.332L154.501 436.217ZM54.3091 382.796C81.6757 410.095 116.543 428.685 154.501 436.217L155.669 430.332C118.872 423.03 85.0729 405.009 58.5464 378.548L54.3091 382.796ZM0.757439 282.853C8.30584 320.717 26.9424 355.498 54.3091 382.796L58.5464 378.548C32.02 352.088 13.9574 318.377 6.64165 281.68L0.757439 282.853ZM11.9038 170.076C-2.91188 205.741 -6.79097 244.988 0.757439 282.853L6.64165 281.68C-0.674102 244.982 3.08529 206.945 17.4447 172.378L11.9038 170.076ZM83.9892 82.4873C51.8058 103.93 26.7195 134.411 11.9038 170.076L17.4447 172.378C31.8042 137.811 56.1192 108.266 87.316 87.4805L83.9892 82.4873ZM192.71 49.6072C154.007 49.6024 116.172 61.0444 83.9892 82.4873L87.316 87.4805C118.513 66.6948 155.19 55.6025 192.709 55.6072L192.71 49.6072ZM267.589 64.4639C243.849 54.6555 218.405 49.6072 192.709 49.6072V55.6072C217.619 55.6072 242.285 60.5011 265.297 70.0092L267.589 64.4639ZM331.068 106.773C312.899 88.649 291.328 74.2724 267.589 64.4639L265.297 70.0092C288.31 79.5174 309.219 93.4534 326.831 111.021L331.068 106.773ZM373.483 170.095C363.65 146.414 349.238 124.897 331.068 106.773L326.831 111.021C344.443 128.589 358.412 149.444 367.941 172.396L373.483 170.095ZM388.37 244.789C388.374 219.157 383.315 193.776 373.483 170.095L367.941 172.396C377.47 195.348 382.373 219.946 382.37 244.788L388.37 244.789ZM377.98 307.543C384.824 287.439 388.37 266.248 388.37 244.788H382.37C382.37 265.586 378.933 286.125 372.3 305.61L377.98 307.543ZM440.873 298.146L374.893 303.587L375.386 309.566L441.366 304.126L440.873 298.146ZM579.426 137.277L438.854 299.169L443.384 303.103L583.957 141.211L579.426 137.277ZM569.639 114.167C571.491 123.447 574.67 132.358 579.038 140.643L584.345 137.845C580.245 130.068 577.262 121.703 575.523 112.992L569.639 114.167ZM575.214 57.5433C567.784 75.4527 565.844 95.1573 569.639 114.167L575.523 112.992C571.961 95.1493 573.782 76.6537 580.756 59.8424L575.214 57.5433ZM611.378 13.5489C595.229 24.3245 582.644 39.634 575.214 57.5433L580.756 59.8424C587.73 43.031 599.545 28.6577 614.709 18.5398L611.378 13.5489ZM666.765 140.482C657.813 140.482 649.064 137.835 641.622 132.876L638.295 137.869C646.723 143.485 656.63 146.482 666.765 146.482V140.482ZM666.861 140.482H666.765V146.482H666.861V140.482ZM698.802 127.239C690.336 135.7 678.845 140.465 666.856 140.482L666.865 146.482C680.44 146.462 693.452 141.068 703.044 131.483L698.802 127.239ZM712.014 95.3607C712.02 107.311 707.269 118.777 698.802 127.239L703.044 131.483C712.635 121.897 718.021 108.904 718.014 95.3577L712.014 95.3607ZM704.39 70.2931C709.361 77.7134 712.014 86.4365 712.014 95.3592H718.014C718.014 85.2463 715.007 75.3611 709.375 66.9537L704.39 70.2931ZM684.083 53.6719C692.352 57.0881 699.419 62.8728 704.39 70.2932L709.375 66.9537C703.742 58.5464 695.738 51.9949 686.374 48.1265L684.083 53.6719ZM657.935 51.1034C666.714 49.3617 675.814 50.2556 684.083 53.6719L686.374 48.1265C677.011 44.2581 666.708 43.2461 656.768 45.2181L657.935 51.1034ZM634.766 63.4551C641.093 57.1439 649.156 52.8451 657.935 51.1034L656.768 45.2181C646.828 47.1901 637.696 52.0578 630.529 59.2069L634.766 63.4551ZM622.384 86.5576C624.13 77.8061 628.438 69.7662 634.766 63.4551L630.529 59.2069C623.361 66.3561 618.478 75.4657 616.5 85.3841L622.384 86.5576ZM624.958 112.625C621.535 104.38 620.639 95.3091 622.384 86.5576L616.5 85.3841C614.522 95.3026 615.537 105.583 619.417 114.926L624.958 112.625ZM641.622 132.876C634.181 127.917 628.382 120.869 624.958 112.625L619.417 114.926C623.297 124.268 629.867 132.252 638.295 137.869L641.622 132.876ZM586.458 592.846C599.051 601.234 613.856 605.708 628.998 605.703L628.996 599.703C615.037 599.707 601.391 595.583 589.783 587.852L586.458 592.846ZM558.245 558.577C564.045 572.533 573.863 584.458 586.458 592.846L589.783 587.852C578.176 580.122 569.129 569.132 563.786 556.275L558.245 558.577ZM553.877 514.446C550.925 529.263 552.445 544.622 558.245 558.577L563.786 556.275C558.442 543.417 557.042 529.269 559.762 515.618L553.877 514.446ZM574.828 475.334C564.121 486.017 556.829 499.628 553.877 514.446L559.762 515.618C562.481 501.967 569.199 489.426 579.066 479.582L574.828 475.334ZM614.028 454.429C599.177 457.377 585.535 464.652 574.828 475.334L579.066 479.582C588.933 469.737 601.506 463.031 615.197 460.314L614.028 454.429ZM658.264 458.77C644.274 452.991 628.88 451.48 614.028 454.429L615.197 460.314C628.887 457.596 643.078 458.989 655.974 464.315L658.264 458.77ZM692.63 486.896C684.215 474.336 672.255 464.548 658.264 458.77L655.974 464.315C668.87 469.642 679.892 478.662 687.645 490.235L692.63 486.896ZM705.537 529.331C705.537 514.224 701.045 499.456 692.63 486.896L687.645 490.235C695.399 501.808 699.537 515.414 699.537 529.331H705.537ZM683.118 583.328C697.472 569.007 705.537 549.584 705.537 529.331H699.537C699.537 547.988 692.108 565.883 678.88 579.081L683.118 583.328ZM628.998 605.703C649.297 605.696 668.764 597.649 683.118 583.328L678.88 579.081C665.653 592.278 647.709 599.697 628.996 599.703L628.998 605.703ZM194.368 339.737C175.665 339.737 157.382 334.205 141.832 323.842L138.505 328.835C155.041 339.855 174.482 345.737 194.368 345.737V339.737ZM197.368 342.761V342.737H191.368V342.761H197.368ZM230.561 332.579C219.087 337.321 206.788 339.761 194.368 339.761V345.761C207.574 345.761 220.651 343.166 232.853 338.125L230.561 332.579ZM261.241 312.13C252.46 320.889 242.035 327.838 230.561 332.579L232.853 338.125C245.054 333.083 256.14 325.694 265.478 316.377L261.241 312.13ZM281.735 281.529C276.985 292.972 270.021 303.37 261.241 312.13L265.478 316.377C274.817 307.061 282.224 296.001 287.276 283.829L281.735 281.529ZM288.925 245.436C288.928 257.821 286.485 270.085 281.735 281.529L287.276 283.829C292.329 271.656 294.928 258.61 294.925 245.435L288.925 245.436ZM272.991 193.048C283.38 208.555 288.925 226.786 288.925 245.436H294.925C294.925 225.596 289.026 206.203 277.976 189.708L272.991 193.048ZM230.556 158.314C247.835 165.452 262.602 177.54 272.991 193.048L277.976 189.708C266.926 173.214 251.22 160.359 232.847 152.768L230.556 158.314ZM175.919 152.947C194.263 149.307 213.277 151.175 230.556 158.314L232.847 152.768C214.473 145.178 194.256 143.192 174.752 147.061L175.919 152.947ZM127.504 178.757C140.727 165.568 157.576 156.586 175.919 152.947L174.752 147.061C155.247 150.931 137.33 160.482 123.267 174.509L127.504 178.757ZM101.628 227.04C105.276 208.749 114.28 191.946 127.504 178.757L123.267 174.509C109.203 188.536 99.6245 206.408 95.7439 225.866L101.628 227.04ZM107.008 281.521C99.8523 264.29 97.9802 245.331 101.628 227.04L95.7439 225.866C91.8633 245.324 93.855 265.493 101.467 283.822L107.008 281.521ZM141.832 323.842C126.282 313.479 114.164 298.751 107.008 281.521L101.467 283.822C109.079 302.15 121.968 317.815 138.505 328.835L141.832 323.842Z" fill="url(#paint0_radial_17_1972)" mask="url(#path-1-inside-1_17_1972)"/>
<defs>
<radialGradient id="paint0_radial_17_1972" cx="0" cy="0" r="1" gradientUnits="userSpaceOnUse" gradientTransform="translate(391.179 266.946) rotate(92.8501) scale(407.307 467.308)">
<stop stop-color="#00FFED"/>
<stop offset="0.0001" stop-color="#0EA197"/>
<stop offset="0.755208" stop-color="#080808"/>
</radialGradient>
</defs>
</svg>
