<svg width="773" height="675" viewBox="0 0 773 675" fill="none" xmlns="http://www.w3.org/2000/svg">
<mask id="path-1-inside-1_17_1995" fill="white">
<path fill-rule="evenodd" clip-rule="evenodd" d="M613.044 16.5418C628.7 6.095 647.11 0.511692 665.947 0.497464C678.471 0.488005 690.873 2.94126 702.445 7.71691C714.017 12.4925 724.532 19.4969 733.387 28.3292C742.243 37.1615 749.266 47.6485 754.054 59.1903C758.842 70.732 761.302 83.1021 761.292 95.5929C761.278 114.381 755.68 132.743 745.206 148.358C734.731 163.974 719.851 176.142 702.445 183.325C694.315 186.68 685.805 188.877 677.16 189.893L656.298 387.238C684.186 392.823 710.042 406.5 730.451 426.859C757.695 454.036 773 490.894 773 529.325C773 557.989 764.478 586.009 748.511 609.841C732.544 633.674 709.849 652.249 683.298 663.217C656.746 674.185 627.529 677.054 599.343 671.46C571.157 665.866 545.267 652.061 524.947 631.791C504.627 611.521 490.79 585.697 485.187 557.583C479.583 529.47 482.464 500.33 493.465 473.85C504.466 447.369 523.094 424.737 546.991 408.816C566.044 396.122 587.765 388.149 610.353 385.44L631.717 184.172C624.659 181.455 617.95 177.909 611.734 173.611L465.544 341.94L465.04 342.539L352.929 352.008C352.918 352.024 352.907 352.041 352.895 352.058C331.722 383.663 301.627 408.295 266.417 422.84C231.207 437.385 192.463 441.19 155.085 433.772C117.707 426.355 83.3743 408.049 56.4278 381.17C29.4812 354.29 11.1316 320.045 3.69955 282.764C-3.73254 245.483 0.0867014 206.841 14.6743 171.725C29.2618 136.608 53.9625 106.596 85.6526 85.4813C117.343 64.3671 154.599 53.0999 192.709 53.1046C218.012 53.1046 243.067 58.0757 266.443 67.734C289.819 77.3923 311.059 91.5486 328.95 109.395C346.84 127.241 361.031 148.427 370.712 171.743C380.393 195.059 385.374 220.049 385.37 245.286C385.37 266.414 381.878 287.28 375.14 307.074L441.119 301.633L581.691 139.741C577.458 131.71 574.376 123.072 572.581 114.077C568.902 95.6507 570.783 76.5506 577.985 59.1903C585.187 41.8299 597.387 26.9886 613.044 16.5418ZM639.959 135.87C647.893 141.157 657.222 143.98 666.765 143.98H666.861C679.643 143.961 691.894 138.882 700.923 129.858C709.952 120.835 715.02 108.605 715.014 95.8567C715.014 86.3388 712.184 77.0347 706.882 69.1209C701.581 61.207 694.045 55.039 685.229 51.3966C676.412 47.7543 666.711 46.8013 657.352 48.6582C647.992 50.515 639.395 55.0983 632.647 61.8284C625.899 68.5586 621.304 77.1333 619.442 86.4683C617.581 95.8033 618.536 105.479 622.188 114.273C625.84 123.066 632.024 130.582 639.959 135.87ZM628.997 603.2C614.446 603.205 600.221 598.906 588.12 590.847C576.02 582.787 566.587 571.33 561.016 557.923C555.444 544.517 553.984 529.764 556.819 515.529C559.655 501.295 566.66 488.219 576.947 477.955C587.234 467.692 600.342 460.702 614.612 457.869C628.883 455.036 643.676 456.487 657.119 462.04C670.563 467.592 682.053 476.997 690.138 489.063C698.222 501.129 702.537 515.316 702.537 529.829C702.537 549.284 694.79 567.943 680.999 581.702C667.208 595.461 648.503 603.194 628.997 603.2ZM140.169 326.836C156.212 337.528 175.073 343.234 194.368 343.234V343.258C207.181 343.258 219.869 340.741 231.707 335.849C243.545 330.958 254.3 323.789 263.359 314.751C272.419 305.713 279.604 294.984 284.505 283.176C289.407 271.368 291.928 258.713 291.925 245.933C291.925 226.689 286.203 207.876 275.483 191.875C264.764 175.874 249.527 163.403 231.701 156.038C213.875 148.674 194.26 146.747 175.336 150.501C156.412 154.256 139.029 163.523 125.385 177.131C111.742 190.738 102.45 208.076 98.686 226.951C94.9217 245.825 96.8537 265.389 104.238 283.169C111.621 300.948 124.125 316.145 140.169 326.836Z"/>
</mask>
<path d="M665.947 0.497464L665.949 3.49746L665.947 0.497464ZM613.044 16.5418L614.709 19.0373L613.044 16.5418ZM702.445 7.71691L703.59 4.94378L703.59 4.94377L702.445 7.71691ZM754.054 59.1903L751.283 60.3398V60.3398L754.054 59.1903ZM761.292 95.5929L764.292 95.5952V95.5952L761.292 95.5929ZM745.206 148.358L747.697 150.029L745.206 148.358ZM702.445 183.325L703.59 186.098L702.445 183.325ZM677.16 189.893L676.81 186.913L674.429 187.193L674.177 189.577L677.16 189.893ZM656.298 387.238L653.315 386.923L653.027 389.643L655.709 390.18L656.298 387.238ZM730.451 426.859L732.569 424.735L730.451 426.859ZM748.511 609.841L746.018 608.172L748.511 609.841ZM683.298 663.217L684.443 665.99L683.298 663.217ZM599.343 671.46L598.759 674.402L599.343 671.46ZM524.947 631.791L527.066 629.667L524.947 631.791ZM485.187 557.583L482.245 558.17L485.187 557.583ZM546.991 408.816L545.328 406.319L546.991 408.816ZM610.353 385.44L610.71 388.419L613.084 388.134L613.336 385.757L610.353 385.44ZM631.717 184.172L634.7 184.489L634.943 182.199L632.795 181.372L631.717 184.172ZM611.734 173.611L613.44 171.143L611.231 169.615L609.469 171.643L611.734 173.611ZM465.544 341.94L463.279 339.973L463.264 339.99L463.25 340.007L465.544 341.94ZM465.04 342.539L465.292 345.529L466.532 345.424L467.334 344.472L465.04 342.539ZM352.929 352.008L352.677 349.018L351.239 349.14L350.436 350.339L352.929 352.008ZM352.895 352.058L355.388 353.728L355.389 353.726L352.895 352.058ZM266.417 422.84L267.562 425.613L266.417 422.84ZM155.085 433.772L154.501 436.715L155.085 433.772ZM56.4278 381.17L54.3091 383.294L56.4278 381.17ZM3.69955 282.764L6.64165 282.177L3.69955 282.764ZM14.6743 171.725L11.9038 170.574L14.6743 171.725ZM85.6526 85.4813L87.316 87.9779L85.6526 85.4813ZM192.709 53.1046L192.709 56.1046H192.709V53.1046ZM266.443 67.734L265.297 70.5067L266.443 67.734ZM328.95 109.395L326.831 111.519V111.519L328.95 109.395ZM370.712 171.743L367.941 172.893L370.712 171.743ZM385.37 245.286L382.37 245.285V245.286H385.37ZM375.14 307.074L372.3 306.107L370.825 310.44L375.386 310.064L375.14 307.074ZM441.119 301.633L441.366 304.623L442.583 304.523L443.384 303.6L441.119 301.633ZM581.691 139.741L583.957 141.708L585.302 140.158L584.345 138.342L581.691 139.741ZM572.581 114.077L575.523 113.489V113.489L572.581 114.077ZM639.959 135.87L638.295 138.366L639.959 135.87ZM666.861 143.98V146.98L666.865 146.98L666.861 143.98ZM700.923 129.858L703.044 131.98L700.923 129.858ZM715.014 95.8567H712.014V95.8582L715.014 95.8567ZM706.882 69.1209L709.375 67.4511V67.4511L706.882 69.1209ZM685.229 51.3966L686.374 48.6239V48.6239L685.229 51.3966ZM622.188 114.273L624.958 113.122V113.122L622.188 114.273ZM588.12 590.847L586.458 593.344L588.12 590.847ZM628.997 603.2L628.996 600.2L628.997 603.2ZM561.016 557.923L558.245 559.075V559.075L561.016 557.923ZM556.819 515.529L553.877 514.943L556.819 515.529ZM614.612 457.869L615.197 460.811L614.612 457.869ZM690.138 489.063L692.63 487.393L690.138 489.063ZM680.999 581.702L678.88 579.578L680.999 581.702ZM194.368 343.234H197.368V340.234H194.368V343.234ZM140.169 326.836L138.505 329.333L140.169 326.836ZM194.368 343.258H191.368V346.258H194.368V343.258ZM263.359 314.751L265.478 316.875L263.359 314.751ZM284.505 283.176L281.735 282.026L284.505 283.176ZM291.925 245.933H288.925V245.934L291.925 245.933ZM275.483 191.875L277.976 190.206L275.483 191.875ZM231.701 156.038L232.847 153.266H232.847L231.701 156.038ZM125.385 177.131L127.504 179.255L125.385 177.131ZM104.238 283.169L107.008 282.018L104.238 283.169ZM665.945 -2.50254C646.516 -2.48786 627.528 3.2707 611.378 14.0463L614.709 19.0373C629.872 8.9193 647.704 3.51124 665.949 3.49746L665.945 -2.50254ZM703.59 4.94377C691.654 0.0179944 678.862 -2.51229 665.945 -2.50254L665.949 3.49746C678.08 3.4883 690.093 5.86453 701.301 10.49L703.59 4.94377ZM735.506 26.2051C726.371 17.0943 715.526 9.86956 703.59 4.94378L701.301 10.49C712.509 15.1155 722.692 21.8994 731.269 30.4533L735.506 26.2051ZM756.825 58.0407C751.885 46.134 744.641 35.3159 735.506 26.2051L731.269 30.4533C739.845 39.0071 746.646 49.163 751.283 60.3398L756.825 58.0407ZM764.292 95.5952C764.302 82.709 761.764 69.9475 756.825 58.0407L751.283 60.3398C755.919 71.5166 758.301 83.4953 758.292 95.5906L764.292 95.5952ZM747.697 150.029C758.502 133.921 764.277 114.978 764.292 95.5952L758.292 95.5906C758.278 113.783 752.857 131.565 742.714 146.687L747.697 150.029ZM703.59 186.098C721.543 178.689 736.892 166.138 747.697 150.029L742.714 146.687C732.571 161.809 718.159 173.594 701.301 180.552L703.59 186.098ZM677.51 192.872C686.426 191.825 695.204 189.559 703.59 186.098L701.301 180.552C693.426 183.802 685.183 185.93 676.81 186.913L677.51 192.872ZM659.281 387.554L680.144 190.208L674.177 189.577L653.315 386.923L659.281 387.554ZM732.569 424.735C711.739 403.955 685.349 389.996 656.887 384.297L655.709 390.18C683.022 395.649 708.345 409.045 728.332 428.983L732.569 424.735ZM776 529.325C776 490.096 760.377 452.474 732.569 424.735L728.332 428.983C755.013 455.598 770 491.692 770 529.325H776ZM751.003 611.511C767.301 587.185 776 558.584 776 529.325H770C770 557.394 761.655 584.832 746.018 608.172L751.003 611.511ZM684.443 665.99C711.542 654.796 734.705 635.837 751.003 611.511L746.018 608.172C730.382 631.511 708.157 649.702 682.152 660.444L684.443 665.99ZM598.759 674.402C627.526 680.111 657.344 677.184 684.443 665.99L682.152 660.444C656.148 671.186 627.533 673.996 599.927 668.517L598.759 674.402ZM522.828 633.915C543.568 654.604 569.992 668.693 598.759 674.402L599.927 668.517C572.321 663.039 546.965 649.518 527.066 629.667L522.828 633.915ZM482.245 558.17C487.965 586.867 502.088 613.226 522.828 633.915L527.066 629.667C507.166 609.816 493.616 584.527 488.129 556.997L482.245 558.17ZM490.695 472.699C479.465 499.728 476.525 529.472 482.245 558.17L488.129 556.997C482.641 529.467 485.462 500.932 496.235 475.001L490.695 472.699ZM545.328 406.319C520.937 422.569 501.924 445.669 490.695 472.699L496.235 475.001C507.009 449.069 525.25 426.905 548.655 411.313L545.328 406.319ZM609.996 382.462C586.943 385.226 564.774 393.364 545.328 406.319L548.655 411.313C567.314 398.881 588.587 391.072 610.71 388.419L609.996 382.462ZM628.734 183.855L607.37 385.124L613.336 385.757L634.7 184.489L628.734 183.855ZM610.028 176.078C616.44 180.512 623.359 184.169 630.639 186.972L632.795 181.372C625.958 178.741 619.461 175.306 613.44 171.143L610.028 176.078ZM467.809 343.907L613.999 175.578L609.469 171.643L463.279 339.973L467.809 343.907ZM467.334 344.472L467.839 343.873L463.25 340.007L462.745 340.607L467.334 344.472ZM353.182 354.997L465.292 345.529L464.787 339.55L352.677 349.018L353.182 354.997ZM355.389 353.726C355.393 353.72 355.398 353.712 355.404 353.704C355.41 353.696 355.416 353.686 355.423 353.676L350.436 350.339C350.431 350.346 350.427 350.353 350.421 350.362C350.415 350.37 350.409 350.38 350.402 350.39L355.389 353.726ZM267.562 425.613C303.32 410.842 333.884 385.826 355.388 353.728L350.403 350.388C329.56 381.499 299.934 405.748 265.272 420.067L267.562 425.613ZM154.501 436.715C192.46 444.247 231.805 440.384 267.562 425.613L265.272 420.067C230.609 434.386 192.467 438.132 155.669 430.83L154.501 436.715ZM54.3091 383.294C81.6757 410.592 116.543 429.182 154.501 436.715L155.669 430.83C118.872 423.528 85.0729 405.506 58.5464 379.046L54.3091 383.294ZM0.757439 283.35C8.30584 321.215 26.9424 355.995 54.3091 383.294L58.5464 379.046C32.02 352.585 13.9574 318.875 6.64165 282.177L0.757439 283.35ZM11.9038 170.574C-2.91188 206.239 -6.79097 245.486 0.757439 283.35L6.64165 282.177C-0.674102 245.48 3.08529 207.442 17.4447 172.875L11.9038 170.574ZM83.9892 82.9847C51.8058 104.428 26.7195 134.909 11.9038 170.574L17.4447 172.875C31.8042 138.308 56.1192 108.764 87.316 87.9779L83.9892 82.9847ZM192.71 50.1046C154.007 50.0998 116.172 61.5419 83.9892 82.9847L87.316 87.9779C118.513 67.1923 155.19 56.1 192.709 56.1046L192.71 50.1046ZM267.589 64.9613C243.849 55.1529 218.405 50.1046 192.709 50.1046V56.1046C217.619 56.1046 242.285 60.9985 265.297 70.5067L267.589 64.9613ZM331.068 107.271C312.899 89.1464 291.328 74.7698 267.589 64.9613L265.297 70.5067C288.31 80.0148 309.219 93.9508 326.831 111.519L331.068 107.271ZM373.483 170.593C363.65 146.912 349.238 125.395 331.068 107.271L326.831 111.519C344.443 129.086 358.412 149.942 367.941 172.893L373.483 170.593ZM388.37 245.286C388.374 219.655 383.315 194.274 373.483 170.593L367.941 172.893C377.47 195.845 382.373 220.444 382.37 245.285L388.37 245.286ZM377.98 308.041C384.824 287.937 388.37 266.745 388.37 245.286H382.37C382.37 266.084 378.933 286.622 372.3 306.107L377.98 308.041ZM440.873 298.644L374.893 304.084L375.386 310.064L441.366 304.623L440.873 298.644ZM579.426 137.774L438.854 299.667L443.384 303.6L583.957 141.708L579.426 137.774ZM569.639 114.664C571.491 123.944 574.67 132.855 579.038 141.14L584.345 138.342C580.245 130.565 577.262 122.2 575.523 113.489L569.639 114.664ZM575.214 58.0407C567.784 75.9501 565.844 95.6547 569.639 114.664L575.523 113.489C571.961 95.6467 573.782 77.1511 580.756 60.3398L575.214 58.0407ZM611.378 14.0463C595.229 24.822 582.644 40.1314 575.214 58.0407L580.756 60.3398C587.73 43.5285 599.545 29.1552 614.709 19.0373L611.378 14.0463ZM666.765 140.98C657.813 140.98 649.064 138.332 641.622 133.373L638.295 138.366C646.723 143.983 656.63 146.98 666.765 146.98V140.98ZM666.861 140.98H666.765V146.98H666.861V140.98ZM698.802 127.736C690.336 136.198 678.845 140.962 666.856 140.98L666.865 146.98C680.44 146.96 693.452 141.565 703.044 131.98L698.802 127.736ZM712.014 95.8582C712.02 107.809 707.269 119.275 698.802 127.736L703.044 131.98C712.635 122.394 718.021 109.401 718.014 95.8552L712.014 95.8582ZM704.39 70.7906C709.361 78.2109 712.014 86.9339 712.014 95.8567H718.014C718.014 85.7437 715.007 75.8585 709.375 67.4511L704.39 70.7906ZM684.083 54.1693C692.352 57.5856 699.419 63.3702 704.39 70.7906L709.375 67.4511C703.742 59.0439 695.738 52.4924 686.374 48.6239L684.083 54.1693ZM657.935 51.6008C666.714 49.8591 675.814 50.7531 684.083 54.1693L686.374 48.6239C677.011 44.7555 666.708 43.7435 656.768 45.7155L657.935 51.6008ZM634.766 63.9525C641.093 57.6413 649.156 53.3425 657.935 51.6008L656.768 45.7155C646.828 47.6875 637.696 52.5552 630.529 59.7043L634.766 63.9525ZM622.384 87.055C624.13 78.3035 628.438 70.2636 634.766 63.9525L630.529 59.7043C623.361 66.8535 618.478 75.9631 616.5 85.8816L622.384 87.055ZM624.958 113.122C621.535 104.878 620.639 95.8065 622.384 87.055L616.5 85.8816C614.522 95.8 615.537 106.081 619.417 115.423L624.958 113.122ZM641.622 133.373C634.181 128.414 628.382 121.366 624.958 113.122L619.417 115.423C623.297 124.766 629.867 132.749 638.295 138.366L641.622 133.373ZM586.458 593.344C599.051 601.731 613.856 606.205 628.998 606.2L628.996 600.2C615.037 600.205 601.391 596.08 589.783 588.35L586.458 593.344ZM558.245 559.075C564.045 573.03 573.863 584.956 586.458 593.344L589.783 588.35C578.176 580.619 569.129 569.63 563.786 556.772L558.245 559.075ZM553.877 514.943C550.925 529.761 552.445 545.119 558.245 559.075L563.786 556.772C558.442 543.915 557.042 529.766 559.762 516.115L553.877 514.943ZM574.828 475.832C564.121 486.514 556.829 500.125 553.877 514.943L559.762 516.115C562.481 502.465 569.199 489.924 579.066 480.079L574.828 475.832ZM614.028 454.926C599.177 457.874 585.535 465.149 574.828 475.832L579.066 480.079C588.933 470.235 601.506 463.529 615.197 460.811L614.028 454.926ZM658.264 459.267C644.274 453.488 628.88 451.978 614.028 454.926L615.197 460.811C628.887 458.093 643.078 459.486 655.974 464.813L658.264 459.267ZM692.63 487.393C684.215 474.833 672.255 465.046 658.264 459.267L655.974 464.813C668.87 470.139 679.892 479.16 687.645 490.733L692.63 487.393ZM705.537 529.829C705.537 514.721 701.045 499.953 692.63 487.393L687.645 490.733C695.399 502.306 699.537 515.911 699.537 529.829H705.537ZM683.118 583.826C697.472 569.504 705.537 550.082 705.537 529.829H699.537C699.537 548.486 692.108 566.381 678.88 579.578L683.118 583.826ZM628.998 606.2C649.297 606.194 668.764 598.146 683.118 583.826L678.88 579.578C665.653 592.776 647.709 600.194 628.996 600.2L628.998 606.2ZM194.368 340.234C175.665 340.234 157.382 334.703 141.832 324.34L138.505 329.333C155.041 340.353 174.482 346.234 194.368 346.234V340.234ZM197.368 343.258V343.234H191.368V343.258H197.368ZM230.561 333.077C219.087 337.818 206.788 340.258 194.368 340.258V346.258C207.574 346.258 220.651 343.664 232.853 338.622L230.561 333.077ZM261.241 312.627C252.46 321.387 242.035 328.336 230.561 333.077L232.853 338.622C245.054 333.581 256.14 326.191 265.478 316.875L261.241 312.627ZM281.735 282.026C276.985 293.469 270.021 303.868 261.241 312.627L265.478 316.875C274.817 307.559 282.224 296.499 287.276 284.326L281.735 282.026ZM288.925 245.934C288.928 258.318 286.485 270.583 281.735 282.026L287.276 284.326C292.329 272.154 294.928 259.107 294.925 245.932L288.925 245.934ZM272.991 193.545C283.38 209.053 288.925 227.284 288.925 245.933H294.925C294.925 226.094 289.026 206.7 277.976 190.206L272.991 193.545ZM230.556 158.811C247.835 165.949 262.602 178.037 272.991 193.545L277.976 190.206C266.926 173.711 251.22 160.856 232.847 153.266L230.556 158.811ZM175.919 153.444C194.263 149.805 213.277 151.673 230.556 158.811L232.847 153.266C214.473 145.675 194.256 143.689 174.752 147.559L175.919 153.444ZM127.504 179.255C140.727 166.066 157.576 157.083 175.919 153.444L174.752 147.559C155.247 151.428 137.33 160.98 123.267 175.007L127.504 179.255ZM101.628 227.537C105.276 209.246 114.28 192.443 127.504 179.255L123.267 175.007C109.203 189.033 99.6245 206.906 95.7439 226.364L101.628 227.537ZM107.008 282.018C99.8523 264.788 97.9802 245.828 101.628 227.537L95.7439 226.364C91.8633 245.822 93.855 265.991 101.467 284.319L107.008 282.018ZM141.832 324.34C126.282 313.977 114.164 299.249 107.008 282.018L101.467 284.319C109.079 302.648 121.968 318.312 138.505 329.333L141.832 324.34Z" fill="url(#paint0_radial_17_1995)" mask="url(#path-1-inside-1_17_1995)"/>
<defs>
<radialGradient id="paint0_radial_17_1995" cx="0" cy="0" r="1" gradientUnits="userSpaceOnUse" gradientTransform="translate(391.179 267.443) rotate(92.8501) scale(407.307 467.308)">
<stop stop-color="#F25123"/>
<stop offset="0.755208" stop-color="#080808"/>
</radialGradient>
</defs>
</svg>
