<svg width="773" height="675" viewBox="0 0 773 675" fill="none" xmlns="http://www.w3.org/2000/svg">
<mask id="path-1-inside-1_17_1988" fill="white">
<path fill-rule="evenodd" clip-rule="evenodd" d="M613.044 16.7931C628.7 6.34634 647.11 0.763034 665.947 0.748807C678.471 0.739347 690.873 3.19261 702.445 7.96825C714.017 12.7439 724.532 19.7482 733.387 28.5805C742.243 37.4128 749.266 47.8998 754.054 59.4416C758.842 70.9834 761.302 83.3535 761.292 95.8443C761.278 114.632 755.68 132.994 745.206 148.609C734.731 164.225 719.851 176.393 702.445 183.576C694.315 186.932 685.805 189.129 677.16 190.144L656.298 387.49C684.186 393.074 710.042 406.751 730.451 427.11C757.695 454.288 773 491.145 773 529.576C773 558.24 764.478 586.26 748.511 610.093C732.544 633.925 709.849 652.5 683.298 663.468C656.746 674.436 627.529 677.305 599.343 671.711C571.157 666.117 545.267 652.313 524.947 632.043C504.627 611.773 490.79 585.948 485.187 557.834C479.583 529.721 482.464 500.581 493.465 474.101C504.466 447.62 523.094 424.989 546.991 409.067C566.044 396.374 587.765 388.4 610.353 385.692L631.717 184.423C624.659 181.706 617.95 178.161 611.734 173.862L465.544 342.191L465.04 342.791L352.929 352.259C352.918 352.276 352.907 352.293 352.895 352.31C331.722 383.914 301.627 408.546 266.417 423.091C231.207 437.636 192.463 441.441 155.085 434.024C117.707 426.606 83.3743 408.3 56.4278 381.421C29.4812 354.542 11.1316 320.296 3.69955 283.015C-3.73254 245.734 0.0867014 207.092 14.6743 171.976C29.2618 136.86 53.9625 106.847 85.6526 85.7327C117.343 64.6184 154.599 53.3512 192.709 53.356C218.012 53.356 243.067 58.3271 266.443 67.9854C289.819 77.6436 311.059 91.8 328.95 109.646C346.84 127.492 361.031 148.678 370.712 171.994C380.393 195.311 385.374 220.301 385.37 245.537C385.37 266.666 381.878 287.531 375.14 307.325L441.119 301.885L581.691 139.993C577.458 131.962 574.376 123.324 572.581 114.328C568.902 95.9021 570.783 76.8019 577.985 59.4416C585.187 42.0813 597.387 27.2399 613.044 16.7931ZM639.959 136.121C647.893 141.409 657.222 144.231 666.765 144.231H666.861C679.643 144.212 691.894 139.133 700.923 130.109C709.952 121.086 715.02 108.856 715.014 96.108C715.014 86.5901 712.184 77.286 706.882 69.3722C701.581 61.4584 694.045 55.2903 685.229 51.648C676.412 48.0056 666.711 47.0527 657.352 48.9095C647.992 50.7663 639.395 55.3496 632.647 62.0798C625.899 68.8099 621.304 77.3847 619.442 86.7196C617.581 96.0546 618.536 105.731 622.188 114.524C625.84 123.317 632.024 130.833 639.959 136.121ZM628.997 603.452C614.446 603.456 600.221 599.157 588.12 591.098C576.02 583.039 566.587 571.581 561.016 558.175C555.444 544.768 553.984 530.015 556.819 515.781C559.655 501.546 566.66 488.47 576.947 478.207C587.234 467.943 600.342 460.953 614.612 458.12C628.883 455.287 643.676 456.738 657.119 462.291C670.563 467.844 682.053 477.248 690.138 489.314C698.222 501.381 702.537 515.567 702.537 530.08C702.537 549.535 694.79 568.194 680.999 581.953C667.208 595.712 648.503 603.445 628.997 603.452ZM140.169 327.088C156.212 337.779 175.073 343.486 194.368 343.486V343.51C207.181 343.51 219.869 340.992 231.707 336.101C243.545 331.209 254.3 324.04 263.359 315.002C272.419 305.965 279.604 295.235 284.505 283.427C289.407 271.619 291.928 258.964 291.925 246.184C291.925 226.94 286.203 208.128 275.483 192.127C264.764 176.126 249.527 163.654 231.701 156.29C213.875 148.925 194.26 146.998 175.336 150.753C156.412 154.507 139.029 163.774 125.385 177.382C111.742 190.99 102.45 208.327 98.686 227.202C94.9217 246.076 96.8537 265.641 104.238 283.42C111.621 301.2 124.125 316.396 140.169 327.088Z"/>
</mask>
<path d="M665.947 0.748807L665.949 3.74881L665.947 0.748807ZM613.044 16.7931L614.709 19.2886L613.044 16.7931ZM702.445 7.96825L703.59 5.19512L703.59 5.19512L702.445 7.96825ZM754.054 59.4416L751.283 60.5912V60.5912L754.054 59.4416ZM761.292 95.8443L764.292 95.8465V95.8465L761.292 95.8443ZM745.206 148.609L747.697 150.281L745.206 148.609ZM702.445 183.576L703.59 186.349L702.445 183.576ZM677.16 190.144L676.81 187.164L674.429 187.444L674.177 189.829L677.16 190.144ZM656.298 387.49L653.315 387.174L653.027 389.894L655.709 390.431L656.298 387.49ZM730.451 427.11L732.569 424.986L730.451 427.11ZM748.511 610.093L746.018 608.423L748.511 610.093ZM683.298 663.468L684.443 666.241L683.298 663.468ZM599.343 671.711L598.759 674.654L599.343 671.711ZM524.947 632.043L527.066 629.919L524.947 632.043ZM485.187 557.834L482.245 558.421L485.187 557.834ZM546.991 409.067L545.328 406.571L546.991 409.067ZM610.353 385.692L610.71 388.67L613.084 388.386L613.336 386.008L610.353 385.692ZM631.717 184.423L634.7 184.74L634.943 182.451L632.795 181.623L631.717 184.423ZM611.734 173.862L613.44 171.394L611.231 169.866L609.469 171.895L611.734 173.862ZM465.544 342.191L463.279 340.224L463.264 340.241L463.25 340.259L465.544 342.191ZM465.04 342.791L465.292 345.78L466.532 345.675L467.334 344.723L465.04 342.791ZM352.929 352.259L352.677 349.27L351.239 349.391L350.436 350.591L352.929 352.259ZM352.895 352.31L355.388 353.979L355.389 353.978L352.895 352.31ZM266.417 423.091L267.562 425.864L266.417 423.091ZM155.085 434.024L154.501 436.966L155.085 434.024ZM56.4278 381.421L54.3091 383.545L56.4278 381.421ZM3.69955 283.015L6.64165 282.428L3.69955 283.015ZM14.6743 171.976L11.9038 170.825L14.6743 171.976ZM85.6526 85.7327L87.316 88.2293L85.6526 85.7327ZM192.709 53.356L192.709 56.356H192.709V53.356ZM266.443 67.9854L265.297 70.758L266.443 67.9854ZM328.95 109.646L326.831 111.77V111.77L328.95 109.646ZM370.712 171.994L367.941 173.145L370.712 171.994ZM385.37 245.537L382.37 245.537V245.537H385.37ZM375.14 307.325L372.3 306.358L370.825 310.691L375.386 310.315L375.14 307.325ZM441.119 301.885L441.366 304.875L442.583 304.774L443.384 303.852L441.119 301.885ZM581.691 139.993L583.957 141.96L585.302 140.41L584.345 138.594L581.691 139.993ZM572.581 114.328L575.523 113.741V113.741L572.581 114.328ZM639.959 136.121L638.295 138.617L639.959 136.121ZM666.861 144.231V147.231L666.865 147.231L666.861 144.231ZM700.923 130.109L703.044 132.231L700.923 130.109ZM715.014 96.108H712.014V96.1095L715.014 96.108ZM706.882 69.3722L709.375 67.7025V67.7025L706.882 69.3722ZM685.229 51.648L686.374 48.8753V48.8753L685.229 51.648ZM622.188 114.524L624.958 113.373V113.373L622.188 114.524ZM588.12 591.098L586.458 593.595L588.12 591.098ZM628.997 603.452L628.996 600.452L628.997 603.452ZM561.016 558.175L558.245 559.326V559.326L561.016 558.175ZM556.819 515.781L553.877 515.194L556.819 515.781ZM614.612 458.12L615.197 461.062L614.612 458.12ZM690.138 489.314L692.63 487.645L690.138 489.314ZM680.999 581.953L678.88 579.829L680.999 581.953ZM194.368 343.486H197.368V340.486H194.368V343.486ZM140.169 327.088L138.505 329.584L140.169 327.088ZM194.368 343.51H191.368V346.51H194.368V343.51ZM263.359 315.002L265.478 317.126L263.359 315.002ZM284.505 283.427L281.735 282.277L284.505 283.427ZM291.925 246.184H288.925V246.185L291.925 246.184ZM275.483 192.127L277.976 190.457L275.483 192.127ZM231.701 156.29L232.847 153.517H232.847L231.701 156.29ZM125.385 177.382L127.504 179.506L125.385 177.382ZM104.238 283.42L107.008 282.269L104.238 283.42ZM665.945 -2.25119C646.516 -2.23652 627.528 3.52205 611.378 14.2976L614.709 19.2886C629.872 9.17064 647.704 3.76259 665.949 3.74881L665.945 -2.25119ZM703.59 5.19512C691.654 0.269337 678.862 -2.26095 665.945 -2.25119L665.949 3.74881C678.08 3.73964 690.093 6.11588 701.301 10.7414L703.59 5.19512ZM735.506 26.4564C726.371 17.3456 715.526 10.1209 703.59 5.19512L701.301 10.7414C712.509 15.3669 722.692 22.1508 731.269 30.7046L735.506 26.4564ZM756.825 58.292C751.885 46.3853 744.641 35.5672 735.506 26.4564L731.269 30.7046C739.845 39.2585 746.646 49.4144 751.283 60.5912L756.825 58.292ZM764.292 95.8465C764.302 82.9603 761.764 70.1988 756.825 58.292L751.283 60.5912C755.919 71.768 758.301 83.7466 758.292 95.842L764.292 95.8465ZM747.697 150.281C758.502 134.172 764.277 115.229 764.292 95.8465L758.292 95.842C758.278 114.035 752.857 131.816 742.714 146.938L747.697 150.281ZM703.59 186.349C721.543 178.94 736.892 166.389 747.697 150.281L742.714 146.938C732.571 162.061 718.159 173.846 701.301 180.803L703.59 186.349ZM677.51 193.123C686.426 192.076 695.204 189.81 703.59 186.349L701.301 180.803C693.426 184.053 685.183 186.181 676.81 187.164L677.51 193.123ZM659.281 387.805L680.144 190.459L674.177 189.829L653.315 387.174L659.281 387.805ZM732.569 424.986C711.739 404.207 685.349 390.247 656.887 384.548L655.709 390.431C683.022 395.901 708.345 409.296 728.332 429.234L732.569 424.986ZM776 529.576C776 490.347 760.377 452.726 732.569 424.986L728.332 429.234C755.013 455.85 770 491.943 770 529.576H776ZM751.003 611.762C767.301 587.436 776 558.835 776 529.576H770C770 557.645 761.655 585.084 746.018 608.423L751.003 611.762ZM684.443 666.241C711.542 655.047 734.705 636.089 751.003 611.762L746.018 608.423C730.382 631.762 708.157 649.954 682.152 660.696L684.443 666.241ZM598.759 674.654C627.526 680.363 657.344 677.435 684.443 666.241L682.152 660.696C656.148 671.438 627.533 674.247 599.927 668.768L598.759 674.654ZM522.828 634.167C543.568 654.855 569.992 668.945 598.759 674.654L599.927 668.768C572.321 663.29 546.965 649.77 527.066 629.919L522.828 634.167ZM482.245 558.421C487.965 587.118 502.088 613.477 522.828 634.167L527.066 629.919C507.166 610.068 493.616 584.778 488.129 557.248L482.245 558.421ZM490.695 472.95C479.465 499.98 476.525 529.724 482.245 558.421L488.129 557.248C482.641 529.718 485.462 501.183 496.235 475.252L490.695 472.95ZM545.328 406.571C520.937 422.821 501.924 445.92 490.695 472.95L496.235 475.252C507.009 449.321 525.25 427.157 548.655 411.564L545.328 406.571ZM609.996 382.713C586.943 385.478 564.774 393.615 545.328 406.571L548.655 411.564C567.314 399.133 588.587 391.323 610.71 388.67L609.996 382.713ZM628.734 184.107L607.37 385.375L613.336 386.008L634.7 184.74L628.734 184.107ZM610.028 176.329C616.44 180.763 623.359 184.421 630.639 187.223L632.795 181.623C625.958 178.992 619.461 175.558 613.44 171.394L610.028 176.329ZM467.809 344.158L613.999 175.829L609.469 171.895L463.279 340.224L467.809 344.158ZM467.334 344.723L467.839 344.124L463.25 340.259L462.745 340.858L467.334 344.723ZM353.182 355.248L465.292 345.78L464.787 339.801L352.677 349.27L353.182 355.248ZM355.389 353.978C355.393 353.971 355.398 353.964 355.404 353.955C355.41 353.947 355.416 353.937 355.423 353.927L350.436 350.591C350.431 350.598 350.427 350.605 350.421 350.613C350.415 350.622 350.409 350.631 350.402 350.641L355.389 353.978ZM267.562 425.864C303.32 411.093 333.884 386.077 355.388 353.979L350.403 350.64C329.56 381.751 299.934 406 265.272 420.319L267.562 425.864ZM154.501 436.966C192.46 444.499 231.805 440.635 267.562 425.864L265.272 420.319C230.609 434.638 192.467 438.383 155.669 431.081L154.501 436.966ZM54.3091 383.545C81.6757 410.843 116.543 429.434 154.501 436.966L155.669 431.081C118.872 423.779 85.0729 405.757 58.5464 379.297L54.3091 383.545ZM0.757439 283.601C8.30584 321.466 26.9424 356.247 54.3091 383.545L58.5464 379.297C32.02 352.837 13.9574 319.126 6.64165 282.428L0.757439 283.601ZM11.9038 170.825C-2.91188 206.49 -6.79097 245.737 0.757439 283.601L6.64165 282.428C-0.674102 245.731 3.08529 207.694 17.4447 173.127L11.9038 170.825ZM83.9892 83.2361C51.8058 104.679 26.7195 135.16 11.9038 170.825L17.4447 173.127C31.8042 138.56 56.1192 109.015 87.316 88.2293L83.9892 83.2361ZM192.71 50.356C154.007 50.3512 116.172 61.7932 83.9892 83.2361L87.316 88.2293C118.513 67.4436 155.19 56.3513 192.709 56.356L192.71 50.356ZM267.589 65.2127C243.849 55.4042 218.405 50.356 192.709 50.356V56.356C217.619 56.356 242.285 61.2499 265.297 70.758L267.589 65.2127ZM331.068 107.522C312.899 89.3978 291.328 75.0211 267.589 65.2127L265.297 70.758C288.31 80.2662 309.219 94.2022 326.831 111.77L331.068 107.522ZM373.483 170.844C363.65 147.163 349.238 125.646 331.068 107.522L326.831 111.77C344.443 129.338 358.412 150.193 367.941 173.145L373.483 170.844ZM388.37 245.537C388.374 219.906 383.315 194.525 373.483 170.844L367.941 173.145C377.47 196.096 382.373 220.695 382.37 245.537L388.37 245.537ZM377.98 308.292C384.824 288.188 388.37 266.997 388.37 245.537H382.37C382.37 266.335 378.933 286.874 372.3 306.358L377.98 308.292ZM440.873 298.895L374.893 304.335L375.386 310.315L441.366 304.875L440.873 298.895ZM579.426 138.026L438.854 299.918L443.384 303.852L583.957 141.96L579.426 138.026ZM569.639 114.915C571.491 124.196 574.67 133.107 579.038 141.392L584.345 138.594C580.245 130.816 577.262 122.452 575.523 113.741L569.639 114.915ZM575.214 58.292C567.784 76.2014 565.844 95.9061 569.639 114.915L575.523 113.741C571.961 95.898 573.782 77.4025 580.756 60.5912L575.214 58.292ZM611.378 14.2976C595.229 25.0733 582.644 40.3827 575.214 58.292L580.756 60.5912C587.73 43.7798 599.545 29.4065 614.709 19.2886L611.378 14.2976ZM666.765 141.231C657.813 141.231 649.064 138.584 641.622 133.625L638.295 138.617C646.723 144.234 656.63 147.231 666.765 147.231V141.231ZM666.861 141.231H666.765V147.231H666.861V141.231ZM698.802 127.987C690.336 136.449 678.845 141.213 666.856 141.231L666.865 147.231C680.44 147.211 693.452 141.817 703.044 132.231L698.802 127.987ZM712.014 96.1095C712.02 108.06 707.269 119.526 698.802 127.987L703.044 132.231C712.635 122.646 718.021 109.653 718.014 96.1065L712.014 96.1095ZM704.39 71.0419C709.361 78.4622 712.014 87.1852 712.014 96.108H718.014C718.014 85.995 715.007 76.1098 709.375 67.7025L704.39 71.0419ZM684.083 54.4207C692.352 57.8369 699.419 63.6216 704.39 71.0419L709.375 67.7025C703.742 59.2952 695.738 52.7437 686.374 48.8753L684.083 54.4207ZM657.935 51.8521C666.714 50.1105 675.814 51.0044 684.083 54.4207L686.374 48.8753C677.011 45.0069 666.708 43.9949 656.768 45.9669L657.935 51.8521ZM634.766 64.2039C641.093 57.8927 649.156 53.5938 657.935 51.8521L656.768 45.9669C646.828 47.9388 637.696 52.8066 630.529 59.9557L634.766 64.2039ZM622.384 87.3064C624.13 78.5549 628.438 70.515 634.766 64.2039L630.529 59.9557C623.361 67.1049 618.478 76.2145 616.5 86.1329L622.384 87.3064ZM624.958 113.373C621.535 105.129 620.639 96.0579 622.384 87.3064L616.5 86.1329C614.522 96.0514 615.537 106.332 619.417 115.675L624.958 113.373ZM641.622 133.625C634.181 128.665 628.382 121.618 624.958 113.373L619.417 115.675C623.297 125.017 629.867 133.001 638.295 138.617L641.622 133.625ZM586.458 593.595C599.051 601.983 613.856 606.457 628.998 606.452L628.996 600.452C615.037 600.456 601.391 596.332 589.783 588.601L586.458 593.595ZM558.245 559.326C564.045 573.282 573.863 585.207 586.458 593.595L589.783 588.601C578.176 580.87 569.129 569.881 563.786 557.023L558.245 559.326ZM553.877 515.194C550.925 530.012 552.445 545.37 558.245 559.326L563.786 557.023C558.442 544.166 557.042 530.017 559.762 516.367L553.877 515.194ZM574.828 476.083C564.121 486.766 556.829 500.377 553.877 515.194L559.762 516.367C562.481 502.716 569.199 490.175 579.066 480.331L574.828 476.083ZM614.028 455.177C599.177 458.126 585.535 465.4 574.828 476.083L579.066 480.331C588.933 470.486 601.506 463.78 615.197 461.062L614.028 455.177ZM658.264 459.518C644.274 453.74 628.88 452.229 614.028 455.177L615.197 461.062C628.887 458.345 643.078 459.737 655.974 465.064L658.264 459.518ZM692.63 487.645C684.215 475.085 672.255 465.297 658.264 459.518L655.974 465.064C668.87 470.39 679.892 479.411 687.645 490.984L692.63 487.645ZM705.537 530.08C705.537 514.972 701.045 500.205 692.63 487.645L687.645 490.984C695.399 502.557 699.537 516.163 699.537 530.08H705.537ZM683.118 584.077C697.472 569.756 705.537 550.333 705.537 530.08H699.537C699.537 548.737 692.108 566.632 678.88 579.829L683.118 584.077ZM628.998 606.452C649.297 606.445 668.764 598.398 683.118 584.077L678.88 579.829C665.653 593.027 647.709 600.446 628.996 600.452L628.998 606.452ZM194.368 340.486C175.665 340.486 157.382 334.954 141.832 324.591L138.505 329.584C155.041 340.604 174.482 346.486 194.368 346.486V340.486ZM197.368 343.51V343.486H191.368V343.51H197.368ZM230.561 333.328C219.087 338.069 206.788 340.51 194.368 340.51V346.51C207.574 346.51 220.651 343.915 232.853 338.873L230.561 333.328ZM261.241 312.879C252.46 321.638 242.035 328.587 230.561 333.328L232.853 338.873C245.054 333.832 256.14 326.442 265.478 317.126L261.241 312.879ZM281.735 282.277C276.985 293.721 270.021 304.119 261.241 312.879L265.478 317.126C274.817 307.81 282.224 296.75 287.276 284.577L281.735 282.277ZM288.925 246.185C288.928 258.57 286.485 270.834 281.735 282.277L287.276 284.577C292.329 272.405 294.928 259.359 294.925 246.184L288.925 246.185ZM272.991 193.796C283.38 209.304 288.925 227.535 288.925 246.184H294.925C294.925 226.345 289.026 206.952 277.976 190.457L272.991 193.796ZM230.556 159.062C247.835 166.201 262.602 178.289 272.991 193.796L277.976 190.457C266.926 173.962 251.22 161.108 232.847 153.517L230.556 159.062ZM175.919 153.695C194.263 150.056 213.277 151.924 230.556 159.062L232.847 153.517C214.473 145.926 194.256 143.94 174.752 147.81L175.919 153.695ZM127.504 179.506C140.727 166.317 157.576 157.335 175.919 153.695L174.752 147.81C155.247 151.68 137.33 161.231 123.267 175.258L127.504 179.506ZM101.628 227.789C105.276 209.497 114.28 192.695 127.504 179.506L123.267 175.258C109.203 189.285 99.6245 207.157 95.7439 226.615L101.628 227.789ZM107.008 282.269C99.8523 265.039 97.9802 246.08 101.628 227.789L95.7439 226.615C91.8633 246.073 93.855 266.242 101.467 284.571L107.008 282.269ZM141.832 324.591C126.282 314.228 114.164 299.5 107.008 282.269L101.467 284.571C109.079 302.899 121.968 318.564 138.505 329.584L141.832 324.591Z" fill="url(#paint0_radial_17_1988)" mask="url(#path-1-inside-1_17_1988)"/>
<defs>
<radialGradient id="paint0_radial_17_1988" cx="0" cy="0" r="1" gradientUnits="userSpaceOnUse" gradientTransform="translate(391.179 267.694) rotate(92.8501) scale(407.307 467.308)">
<stop stop-color="#7FBA00"/>
<stop offset="0.755208" stop-color="#080808"/>
</radialGradient>
</defs>
</svg>
