<svg width="19" height="33" viewBox="0 0 19 33" fill="none" xmlns="http://www.w3.org/2000/svg">
<path d="M5.56404 18.632C5.44104 18.632 2.73504 18.632 1.50504 18.632C0.849043 18.632 0.644043 18.386 0.644043 17.771C0.644043 16.131 0.644043 14.45 0.644043 12.81C0.644043 12.154 0.890043 11.949 1.50504 11.949H5.56404C5.56404 11.826 5.56404 9.44799 5.56404 8.34099C5.56404 6.70099 5.85104 5.14299 6.67104 3.70799C7.53204 2.23199 8.76204 1.24799 10.32 0.673991C11.345 0.304991 12.37 0.140991 13.477 0.140991H17.495C18.069 0.140991 18.315 0.386991 18.315 0.960991V5.63499C18.315 6.20899 18.069 6.45499 17.495 6.45499C16.388 6.45499 15.281 6.45499 14.174 6.49599C13.067 6.49599 12.493 7.02899 12.493 8.17699C12.452 9.40699 12.493 10.596 12.493 11.867H17.249C17.905 11.867 18.151 12.113 18.151 12.769V17.73C18.151 18.386 17.946 18.591 17.249 18.591C15.773 18.591 12.616 18.591 12.493 18.591V31.957C12.493 32.654 12.288 32.9 11.55 32.9C9.82804 32.9 8.14704 32.9 6.42504 32.9C5.81004 32.9 5.56404 32.654 5.56404 32.039C5.56404 27.734 5.56404 18.755 5.56404 18.632Z" fill="#565656"/>
</svg>