<svg width="33" height="33" viewBox="0 0 33 33" fill="none" xmlns="http://www.w3.org/2000/svg">
<path d="M32.9001 32.9V20.887C32.9001 14.983 31.6291 10.473 24.7411 10.473C21.4201 10.473 19.2061 12.277 18.3041 13.999H18.2221V11.006H11.7031V32.9H18.5091V22.035C18.5091 19.165 19.0421 16.418 22.5681 16.418C26.0531 16.418 26.0941 19.657 26.0941 22.199V32.859H32.9001V32.9Z" fill="#565656"/>
<path d="M0.632812 11.006H7.43881V32.9H0.632812V11.006Z" fill="#565656"/>
<path d="M4.0361 0.0999756C1.8631 0.0999756 0.100098 1.86298 0.100098 4.03598C0.100098 6.20898 1.8631 8.01298 4.0361 8.01298C6.2091 8.01298 7.9721 6.20898 7.9721 4.03598C7.9721 1.86298 6.2091 0.0999756 4.0361 0.0999756Z" fill="#565656"/>
</svg>